<svg width="40" height="40" viewBox="0 0 40 40" fill="none" xmlns="http://www.w3.org/2000/svg">
<g id="biotech">
<path id="Vector" d="M11.6668 32.4998C9.8335 32.4998 8.3335 33.9998 8.3335 35.8332H31.6668C31.6668 33.9998 30.1668 32.4998 28.3335 32.4998H21.6668V29.1665H26.6668C28.5002 29.1665 30.0002 27.6665 30.0002 25.8332H16.6668C13.9002 25.8332 11.6668 23.5998 11.6668 20.8332C11.6668 19.0165 12.6502 17.4332 14.1168 16.5498C14.8002 17.5332 15.8835 18.2165 17.1668 18.3165C18.3335 18.4165 19.4335 17.9998 20.2502 17.2832L21.2335 19.9665L22.8002 19.3998L23.3668 20.9665L26.5002 19.8332L25.9335 18.2665L27.5002 17.6998L22.9335 5.1665L21.3668 5.73317L20.8002 4.1665L17.6668 5.29984L18.2335 6.8665L16.6668 7.44984L17.6002 10.0332C15.6502 9.9665 13.9502 11.2832 13.4668 13.1332C10.4502 14.3998 8.3335 17.3665 8.3335 20.8332C8.3335 25.4332 12.0668 29.1665 16.6668 29.1665V32.4998H11.6668ZM21.4335 8.3665L24.2835 16.1998L22.7168 16.7665L19.8668 8.93317L21.4335 8.3665ZM17.5002 12.4998C18.4168 12.4998 19.1668 13.2498 19.1668 14.1665C19.1668 15.0832 18.4168 15.8332 17.5002 15.8332C16.5835 15.8332 15.8335 15.0832 15.8335 14.1665C15.8335 13.2498 16.5835 12.4998 17.5002 12.4998Z" fill="#111111"/>
</g>
</svg>
