<svg width="40" height="40" viewBox="0 0 40 40" fill="none" xmlns="http://www.w3.org/2000/svg">
<g id="grass">
<path id="Vector" d="M20.0002 33.3332H3.3335V29.9998H12.9168C11.7002 25.3165 8.01683 21.6498 3.3335 20.4332C4.40016 20.1665 5.51683 19.9998 6.66683 19.9998C14.0335 19.9998 20.0002 25.9665 20.0002 33.3332ZM36.6668 20.4332C35.6002 20.1665 34.4835 19.9998 33.3335 19.9998C28.4502 19.9998 24.2002 22.6332 21.8668 26.5498C22.3502 27.6498 22.7502 28.7998 22.9835 29.9998C23.2002 31.0832 23.3168 32.1998 23.3168 33.3332H36.6502V29.9998H27.0668C28.3002 25.3165 31.9835 21.6498 36.6668 20.4332ZM26.0668 18.3665C27.3668 14.8832 29.7835 11.9665 32.8835 10.0332C25.7335 10.2665 20.0002 16.1165 20.0002 23.3332C20.0002 23.3498 20.0002 23.3665 20.0002 23.3665C21.5835 21.2498 23.6668 19.5332 26.0668 18.3665ZM19.0335 14.7498C17.6335 11.0998 14.8002 8.14984 11.1668 6.6665C13.5668 9.7665 15.0002 13.6332 15.0002 17.8498C15.0002 18.1998 14.9502 18.5332 14.9335 18.8665C15.6502 19.2665 16.3168 19.7332 16.9668 20.2332C17.3168 18.2665 18.0502 16.4165 19.0335 14.7498Z" fill="black"/>
</g>
</svg>
