<svg width="40" height="40" viewBox="0 0 40 40" fill="none" xmlns="http://www.w3.org/2000/svg">
<g id="opacity">
<path id="Vector" d="M29.4332 13.3249L19.9998 3.9082L10.5665 13.3249C7.9665 15.9249 6.6665 19.3915 6.6665 22.7249C6.6665 26.0582 7.9665 29.5749 10.5665 32.1749C13.1665 34.7749 16.5832 36.0915 19.9998 36.0915C23.4165 36.0915 26.8332 34.7749 29.4332 32.1749C32.0332 29.5749 33.3332 26.0582 33.3332 22.7249C33.3332 19.3915 32.0332 15.9249 29.4332 13.3249ZM9.99984 23.3249C10.0165 19.9915 11.0332 17.8749 12.9332 15.9915L19.9998 8.77487L27.0665 16.0749C28.9665 17.9415 29.9832 19.9915 29.9998 23.3249H9.99984Z" fill="black"/>
</g>
</svg>
