<svg width="239" height="29" viewBox="0 0 239 29" fill="none" xmlns="http://www.w3.org/2000/svg">
<g id="Arthrohard">
<path d="M21.3393 28.4757L18.5628 21.9819H7.25854L4.36306 28.4757H0L13.1685 0L25.7024 28.4757H21.3393ZM8.92443 18.1099H16.9366L13.0098 8.99444L8.92443 18.1099Z" fill="#111111"/>
<path d="M29.0441 1.57302H33.7641C36.9769 1.57302 39.0394 1.97636 40.745 3.14604C43.6405 5.12239 43.8785 8.30876 43.8785 9.47844C43.8785 13.3505 41.5383 16.1739 38.0082 16.9805L46.2583 28.4757H41.3796L33.8038 17.4645H33.0898V28.4757H29.0441V1.57302ZM33.0898 5.3644V13.9152H34.3591C35.4697 13.9152 39.9914 13.7942 39.9914 9.51878C39.9914 5.7274 36.4613 5.3644 34.4781 5.3644H33.0898Z" fill="#111111"/>
<path d="M63.6383 5.44506H57.5697V28.4757H53.524V5.44506H47.4554V1.57302H63.6383V5.44506Z" fill="#111111"/>
<path d="M71.2433 1.57302V12.2211H82.5872V1.57302H86.633V28.4757H82.5872V16.0932H71.2433V28.4757H67.1976V1.57302H71.2433Z" fill="#111111"/>
<path d="M92.9948 1.57302H97.7148C100.928 1.57302 102.99 1.97636 104.696 3.14604C107.591 5.12239 107.829 8.30876 107.829 9.47844C107.829 13.3505 105.489 16.1739 101.959 16.9805L110.209 28.4757H105.33L97.7544 17.4645H97.0405V28.4757H92.9948V1.57302ZM97.0405 5.3644V13.9152H98.3098C99.4203 13.9152 103.942 13.7942 103.942 9.51878C103.942 5.7274 100.412 5.3644 98.4287 5.3644H97.0405Z" fill="#111111"/>
<path d="M126.677 1.08901C134.61 1.08901 140.44 7.13908 140.44 15.0445C140.44 22.9499 134.61 29 126.677 29C118.744 29 112.913 22.9499 112.913 15.0445C112.913 7.13908 118.744 1.08901 126.677 1.08901ZM126.677 25.2086C132.349 25.2086 136.394 21.0139 136.394 15.0445C136.394 9.0751 132.349 4.88039 126.677 4.88039C121.005 4.88039 116.959 9.0751 116.959 15.0445C116.959 21.0139 121.005 25.2086 126.677 25.2086Z" fill="#111111"/>
<path d="M149.564 1.57302V12.2211H160.908V1.57302H164.954V28.4757H160.908V16.0932H149.564V28.4757H145.519V1.57302H149.564Z" fill="#AD4844"/>
<path d="M189.641 28.4757L186.864 21.9819H175.56L172.665 28.4757H168.301L181.47 0L194.004 28.4757H189.641ZM177.226 18.1099H185.238L181.311 8.99444L177.226 18.1099Z" fill="#AD4844"/>
<path d="M197.346 1.57302H202.066C205.278 1.57302 207.341 1.97636 209.046 3.14604C211.942 5.12239 212.18 8.30876 212.18 9.47844C212.18 13.3505 209.84 16.1739 206.31 16.9805L214.56 28.4757H209.681L202.105 17.4645H201.391V28.4757H197.346V1.57302ZM201.391 5.3644V13.9152H202.661C203.771 13.9152 208.293 13.7942 208.293 9.51878C208.293 5.7274 204.763 5.3644 202.78 5.3644H201.391Z" fill="#AD4844"/>
<path d="M218.533 1.57302H224.086C227.775 1.57302 230.988 1.97636 233.923 4.19471C237.136 6.65508 239 10.5675 239 15.0445C239 19.5216 237.175 23.3936 233.685 25.8943C230.591 28.1127 227.696 28.4757 224.007 28.4757H218.533V1.57302ZM222.579 5.44506V24.6036H224.324C226.307 24.6036 229.044 24.4423 231.345 22.7079C233.169 21.2962 234.954 18.7149 234.954 15.0445C234.954 11.4951 233.288 8.7121 231.384 7.30042C229.084 5.6064 226.268 5.44506 224.324 5.44506H222.579Z" fill="#AD4844"/>
</g>
</svg>
