<svg width="90" height="198" viewBox="0 0 90 198" fill="none" xmlns="http://www.w3.org/2000/svg">
<g id="Vector">
<path d="M2.17409 12.0063C-1.07123 16.3446 -0.175092 22.483 4.17584 25.7167C8.52887 28.948 14.688 28.0506 17.9333 23.7123C21.1809 19.3737 20.2823 13.2333 15.9339 10.0016C11.5806 6.7681 5.4192 7.66564 2.17409 12.0063ZM11.5793 38.8987C14.3548 38.2246 16.9392 36.9258 19.0258 34.9766L25.9467 28.5029C29.5161 25.1649 31.7624 20.6056 32.0177 15.7324C32.077 14.5729 32.2666 13.4037 32.5948 12.2404C35.0518 3.51753 44.3248 -1.46773 53.0512 1.40694C60.8408 3.97319 65.4437 12.1479 63.5913 20.1165C61.0998 30.8517 51.8289 32.1527 46.1487 31.8449C42.9605 31.674 39.8455 32.8302 37.5156 35.0097L31.6721 40.473C28.0315 43.876 28.6885 49.8075 32.9815 52.3364L37.9625 55.2691C43.8247 58.7186 50.8224 59.5263 57.4037 57.7748C60.7516 56.8844 64.375 56.8493 67.9533 57.8486C78.7604 60.8678 84.9955 72.1695 81.6845 82.9311C78.6134 92.9161 67.4879 99.0627 57.3667 96.3727C50.032 94.4232 44.7587 88.6768 43.0745 81.8379C41.4554 75.2733 37.3492 69.5898 31.5091 66.1523L22.0545 60.5858C19.5515 59.1113 16.7117 58.2752 13.8063 58.2511C12.9513 58.2458 12.0881 58.1269 11.2277 57.8861C7.43553 56.8272 4.791 53.6907 4.18 50.0607L4.06061 48.9691C4.00417 47.9254 4.11128 46.8526 4.41132 45.79C5.40772 42.2501 8.23118 39.7097 11.5793 38.8987Z" fill="url(#paint0_linear_10476_862)"/>
<path d="M71.3833 174.849C68.138 179.187 69.0341 185.326 73.3874 188.559C77.7358 191.791 83.8972 190.893 87.1425 186.555C90.3899 182.214 89.494 176.078 85.1407 172.845C80.7898 169.611 74.6307 170.508 71.3833 174.849ZM78.66 160.783C75.8525 161.313 73.2046 162.482 71.0212 164.321L63.7768 170.434C60.0405 173.587 57.563 178.025 57.06 182.879C56.9393 184.033 56.6904 185.193 56.3018 186.336C53.4014 194.923 43.8851 199.428 35.3195 196.113C27.6715 193.153 23.4952 184.755 25.7503 176.889C28.789 166.297 38.115 165.468 43.7728 166.065C46.948 166.401 50.12 165.405 52.5571 163.346L58.6744 158.187C62.4823 154.974 62.1343 149.017 57.976 146.272L53.1524 143.091C47.4758 139.344 40.5252 138.184 33.8658 139.597C30.4739 140.314 26.8568 140.164 23.3345 138.985C12.6946 135.417 7.04743 123.814 10.9067 113.235C14.4874 103.418 25.9118 97.8467 35.8811 101.048C43.1096 103.37 48.0769 109.378 49.4125 116.296C50.6896 122.934 54.4984 128.82 60.1547 132.55L69.3114 138.592C71.7322 140.191 74.5266 141.17 77.4292 141.341C78.2792 141.394 79.1369 141.555 79.9826 141.839C83.7152 143.09 86.1985 146.356 86.6199 150.013L86.6859 151.11C86.6864 152.156 86.5249 153.222 86.1693 154.267C84.9924 157.753 82.0427 160.144 78.66 160.783Z" fill="url(#paint1_linear_10476_862)"/>
</g>
<defs>
<linearGradient id="paint0_linear_10476_862" x1="9.23488" y1="4.09823" x2="61.6204" y2="189.032" gradientUnits="userSpaceOnUse">
<stop stop-color="white"/>
<stop offset="0.853177" stop-opacity="0"/>
</linearGradient>
<linearGradient id="paint1_linear_10476_862" x1="9.23488" y1="4.09823" x2="61.6204" y2="189.032" gradientUnits="userSpaceOnUse">
<stop stop-color="white"/>
<stop offset="0.853177" stop-opacity="0"/>
</linearGradient>
</defs>
</svg>
