<svg width="96" height="197" viewBox="0 0 96 197" fill="none" xmlns="http://www.w3.org/2000/svg">
<g id="Vector">
<path d="M2.66898 13.8033C-0.396728 18.2386 0.723193 24.3096 5.17056 27.3634C9.61992 30.4145 15.7115 29.2926 18.7772 24.8574C21.8452 20.4218 20.7227 14.3488 16.2779 11.297C11.8283 8.24361 5.73439 9.36578 2.66898 13.8033ZM13.0243 40.1965C15.7593 39.4228 18.281 38.0348 20.2835 36.0186L26.9248 29.3228C30.35 25.8703 32.414 21.2525 32.4864 16.3967C32.5021 15.2414 32.6471 14.0717 32.9301 12.9026C35.0485 4.13639 44.0844 -1.16684 52.8697 1.36675C60.7118 3.62854 65.5938 11.5865 64.0487 19.5801C61.9709 30.3487 52.7998 31.988 47.1396 31.8935C43.9626 31.8424 40.908 33.1083 38.6721 35.3626L33.0646 41.0134C29.571 44.5332 30.4453 50.4074 34.8088 52.7623L39.8716 55.4932C45.8299 58.7051 52.8189 59.2477 59.2986 57.2606C62.5948 56.2504 66.1968 56.0805 69.7926 56.9409C80.6524 59.5406 87.2741 70.5475 84.3825 81.373C81.7004 91.4171 70.8655 97.9443 60.7001 95.6463C53.3333 93.981 47.875 88.4629 45.9453 81.7245C44.0906 75.2566 39.7952 69.7575 33.8594 66.5567L24.2497 61.3733C21.7056 60.0002 18.8504 59.2746 15.9601 59.3589C15.1096 59.3855 14.2468 59.2993 13.3822 59.092C9.57151 58.1802 6.82473 55.1597 6.08185 51.5725L5.92244 50.4914C5.82742 49.4555 5.89396 48.3847 6.15275 47.3168C7.01172 43.7593 9.7249 41.1278 13.0243 40.1965Z" fill="url(#paint0_linear_10476_849)"/>
<path d="M77.5635 173.166C74.4978 177.602 75.6177 183.673 80.0674 186.726C84.5121 189.778 90.606 188.656 93.6717 184.22C96.7394 179.782 95.6198 173.714 91.1701 170.66C86.7228 167.607 80.6312 168.728 77.5635 173.166ZM84.2758 158.907C81.5036 159.538 78.9139 160.8 76.8111 162.71L69.8346 169.06C66.2364 172.334 63.9379 176.84 63.6186 181.686C63.5416 182.837 63.3373 184.001 62.9935 185.152C60.429 193.799 51.1333 198.634 42.4915 195.657C34.7756 192.998 30.3094 184.802 32.259 176.895C34.8861 166.249 44.1297 165.077 49.7784 165.46C52.9486 165.675 56.0659 164.567 58.4128 162.429L64.304 157.07C67.9712 153.733 67.4031 147.822 63.1655 145.247L58.25 142.264C52.4652 138.749 45.5099 137.854 38.94 139.508C35.5935 140.347 31.9908 140.332 28.444 139.291C17.73 136.14 11.6817 124.811 15.1255 114.147C18.3205 104.251 29.4741 98.2843 39.5076 101.097C46.7826 103.136 51.9463 108.926 53.5323 115.755C55.0497 122.309 59.0568 128.021 64.8208 131.52L74.152 137.188C76.619 138.687 79.4343 139.556 82.3273 139.618C83.1745 139.639 84.0336 139.768 84.8851 140.019C88.6438 141.124 91.2349 144.279 91.7904 147.9L91.8968 148.988C91.9363 150.029 91.8154 151.095 91.5007 152.147C90.4602 155.658 87.616 158.145 84.2758 158.907Z" fill="url(#paint1_linear_10476_849)"/>
</g>
<defs>
<linearGradient id="paint0_linear_10476_849" x1="9.39603" y1="5.67592" x2="68.3831" y2="187.635" gradientUnits="userSpaceOnUse">
<stop stop-color="white"/>
<stop offset="0.853177" stop-opacity="0"/>
</linearGradient>
<linearGradient id="paint1_linear_10476_849" x1="9.39603" y1="5.67592" x2="68.3831" y2="187.635" gradientUnits="userSpaceOnUse">
<stop stop-color="white"/>
<stop offset="0.853177" stop-opacity="0"/>
</linearGradient>
</defs>
</svg>
