<svg width="87" height="166" viewBox="0 0 87 166" fill="none" xmlns="http://www.w3.org/2000/svg">
<g id="Vector">
<path d="M38.9741 1.44447C35.0343 3.74802 33.7188 8.80525 36.0359 12.7402C38.3555 16.6739 43.4292 17.9953 47.369 15.6917C51.3107 13.3888 52.6249 8.32908 50.3091 4.3966C47.9901 0.461068 42.9145 -0.860944 38.9741 1.44447ZM37.4628 25.3955C39.8375 25.7816 42.2687 25.6203 44.5265 24.7913L52.0183 22.0347C55.8819 20.6136 59.1187 17.8113 60.9134 14.1131C61.3393 13.2327 61.8694 12.3875 62.5052 11.5923C67.2697 5.62788 76.0992 4.79701 81.9295 9.88674C87.1339 14.4302 88.0278 22.2821 83.9797 27.8593C78.5292 35.374 70.9083 33.3464 66.6011 31.2466C64.1829 30.0695 61.3867 29.9463 58.8646 30.8744L52.54 33.1998C48.5999 34.6479 47.1665 39.4663 49.6695 42.8352L52.5743 46.743C55.9935 51.3404 61.1594 54.2598 66.8406 55.0566C69.7304 55.4624 72.5538 56.6223 75.0034 58.57C82.401 64.4536 83.5372 75.2669 77.4422 82.5337C71.7876 89.2763 61.14 90.4015 54.1668 84.9982C49.1134 81.0824 46.9037 74.8954 47.8372 69.0363C48.7313 63.4114 47.4067 57.6555 44.0007 53.0746L38.4871 45.6574C37.0278 43.6931 35.0979 42.1139 32.851 41.1433C32.1892 40.8591 31.5583 40.484 30.9695 40.0153C28.3735 37.9512 27.3488 34.6508 28.0638 31.6336L28.3288 30.7473C28.6269 29.9188 29.0615 29.1214 29.6425 28.3951C31.5754 25.9744 34.5988 24.9279 37.4628 25.3955Z" fill="url(#paint0_linear_10476_848)"/>
<path d="M39.3347 150.491C35.3949 152.795 34.0794 157.852 36.3984 161.788C38.7142 165.72 43.7898 167.042 47.7296 164.739C51.6718 162.434 52.9868 157.378 50.6678 153.443C48.3507 149.508 43.277 148.187 39.3347 150.491ZM49.59 141.959C47.2376 141.451 44.7997 141.491 42.5028 142.202L34.878 144.573C30.9457 145.796 27.569 148.428 25.5885 152.031C25.1169 152.886 24.5435 153.705 23.8675 154.465C18.8037 160.178 9.94261 160.557 4.38119 155.178C-0.584213 150.376 -1.07376 142.49 3.2532 137.125C9.08124 129.9 16.5905 132.312 20.7854 134.629C23.1397 135.93 25.9274 136.196 28.4931 135.397L34.9306 133.397C38.9383 132.152 40.62 127.414 38.2921 123.922L35.5908 119.873C32.413 115.106 27.3992 111.928 21.7683 110.843C18.9011 110.288 16.1433 108.987 13.7963 106.918C6.70788 100.664 6.12687 89.8086 12.5875 82.8635C18.5824 76.4181 29.2735 75.8371 35.9613 81.5878C40.8105 85.7573 42.697 92.0473 41.4671 97.8534C40.2834 103.423 41.3109 109.239 44.4784 113.987L49.6048 121.676C50.9597 123.71 52.8078 125.384 55.0041 126.468C55.6466 126.788 56.2593 127.194 56.8225 127.691C59.3093 129.885 60.1664 133.233 59.2955 136.209L58.9875 137.082C58.645 137.894 58.1704 138.669 57.5523 139.363C55.4968 141.683 52.4245 142.572 49.59 141.959Z" fill="url(#paint1_linear_10476_848)"/>
</g>
<defs>
<linearGradient id="paint0_linear_10476_848" x1="47.0444" y1="-2.37935" x2="27.1118" y2="158.3" gradientUnits="userSpaceOnUse">
<stop stop-color="white"/>
<stop offset="0.853177" stop-opacity="0"/>
</linearGradient>
<linearGradient id="paint1_linear_10476_848" x1="47.0444" y1="-2.37935" x2="27.1118" y2="158.3" gradientUnits="userSpaceOnUse">
<stop stop-color="white"/>
<stop offset="0.853177" stop-opacity="0"/>
</linearGradient>
</defs>
</svg>
