<svg width="105" height="198" viewBox="0 0 105 198" fill="none" xmlns="http://www.w3.org/2000/svg">
<g id="Vector">
<path d="M56.6887 195.839C61.3979 193.16 63.0308 187.176 60.3357 182.472C57.6377 177.77 51.6336 176.13 46.9244 178.809C42.2129 181.487 40.5815 187.474 43.2751 192.175C45.9724 196.879 51.9787 198.52 56.6887 195.839ZM58.8203 167.429C56.0068 166.938 53.1187 167.095 50.4268 168.047L41.4948 171.214C36.8885 172.846 33.0066 176.127 30.8241 180.492C30.3061 181.531 29.665 182.526 28.899 183.462C23.1592 190.474 12.6665 191.336 5.81728 185.212C-0.296511 179.746 -1.24694 170.412 3.63697 163.849C10.2129 155.006 19.2307 157.52 24.3141 160.073C27.168 161.504 30.4855 161.69 33.4925 160.624L41.0329 157.953C45.7305 156.289 47.4998 150.59 44.5761 146.555L41.1831 141.876C37.189 136.37 31.0981 132.832 24.3653 131.806C20.9407 131.283 17.6055 129.867 14.7252 127.52C6.02672 120.432 4.83048 107.58 12.168 99.0396C18.9753 91.1155 31.6304 89.9299 39.8319 96.4422C45.7754 101.162 48.3112 108.537 47.1205 115.479C45.9798 122.144 47.4711 128.995 51.4496 134.481L57.89 143.363C59.5947 145.715 61.8633 147.617 64.5167 148.801C65.2983 149.147 66.042 149.602 66.7343 150.166C69.7868 152.653 70.9567 156.585 70.0653 160.157L69.7383 161.205C69.3727 162.184 68.8456 163.125 68.1458 163.979C65.8171 166.825 62.2135 168.025 58.8203 167.429Z" fill="url(#paint0_linear_10476_852)"/>
<path d="M58.3616 18.9073C63.0708 16.2285 64.7037 10.2438 62.0064 5.5394C59.3128 0.838694 53.3065 -0.802143 48.5972 1.87677C43.8851 4.55715 42.2529 10.5396 44.9502 15.244C47.6452 19.9476 53.6494 21.5877 58.3616 18.9073ZM46.0678 28.8908C48.8529 29.5276 51.7474 29.5146 54.484 28.702L63.5685 25.9951C68.2536 24.5994 72.299 21.5221 74.7008 17.274C75.2726 16.265 75.9648 15.3007 76.778 14.4083C82.8696 7.69792 93.3935 7.37316 99.9194 13.8361C105.746 19.6072 106.216 28.9751 101.004 35.283C93.9838 43.7762 85.104 40.8078 80.157 37.9982C77.3807 36.421 74.0753 36.0654 71.0184 36.9778L63.3486 39.2608C58.5736 40.6831 56.5105 46.2829 59.2247 50.4612L62.3742 55.3053C66.0792 61.0094 71.9861 64.8519 78.655 66.2193C82.0506 66.9184 85.306 68.5022 88.0629 70.9917C96.389 78.5156 96.9257 91.4092 89.1587 99.5623C81.9516 107.129 69.2525 107.668 61.3948 100.747C55.6973 95.7293 53.5466 88.2362 55.0883 81.3614C56.572 74.7663 55.4343 67.8482 51.7412 62.1677L45.7642 52.9681C44.1846 50.5347 42.0144 48.5209 39.4225 47.2031C38.6643 46.8152 37.9427 46.3242 37.2812 45.7256C34.3602 43.0862 33.3899 39.1 34.4657 35.5796L34.8436 34.5482C35.2616 33.5887 35.836 32.6761 36.5794 31.8611C39.0522 29.136 42.7117 28.1239 46.0678 28.8908Z" fill="url(#paint1_linear_10476_852)"/>
</g>
<defs>
<linearGradient id="paint0_linear_10476_852" x1="47.0549" y1="200.265" x2="72.9809" y2="9.81087" gradientUnits="userSpaceOnUse">
<stop stop-color="white"/>
<stop offset="0.853177" stop-opacity="0"/>
</linearGradient>
<linearGradient id="paint1_linear_10476_852" x1="47.0549" y1="200.265" x2="72.9809" y2="9.81087" gradientUnits="userSpaceOnUse">
<stop stop-color="white"/>
<stop offset="0.853177" stop-opacity="0"/>
</linearGradient>
</defs>
</svg>
