<svg width="88" height="189" viewBox="0 0 88 189" fill="none" xmlns="http://www.w3.org/2000/svg">
<g id="Vector">
<path d="M85.6718 177.25C88.7211 173.056 87.7835 167.193 83.5773 164.155C79.3692 161.119 73.4865 162.058 70.4371 166.252C67.3856 170.447 68.3257 176.312 72.5294 179.348C76.7377 182.386 82.6227 181.446 85.6718 177.25ZM76.3201 151.635C73.6727 152.317 71.2163 153.594 69.2447 155.486L62.7056 161.772C59.3331 165.013 57.2428 169.406 57.0619 174.073C57.0202 175.183 56.8541 176.305 56.5551 177.422C54.3174 185.802 45.5078 190.694 37.1188 188.057C29.6305 185.703 25.1189 177.939 26.7877 170.289C29.0323 159.982 37.8879 158.616 43.3281 158.837C46.3815 158.959 49.3476 157.812 51.549 155.695L57.0701 150.391C60.51 147.087 59.8039 141.418 55.6624 139.054L50.8571 136.312C45.2018 133.088 38.4943 132.406 32.2186 134.168C29.0262 135.064 25.5589 135.144 22.1214 134.235C11.7392 131.486 5.62475 120.751 8.65315 110.409C11.4622 100.813 22.0296 94.7854 31.751 97.2279C38.7959 98.9979 43.9175 104.429 45.6185 110.952C47.2536 117.213 51.2575 122.599 56.8914 125.813L66.0123 131.017C68.427 132.395 71.1557 133.158 73.9366 133.144C74.7549 133.138 75.5826 133.24 76.4091 133.459C80.0522 134.423 82.624 137.391 83.256 140.857L83.3845 141.9C83.4521 142.898 83.3636 143.926 83.0903 144.947C82.1829 148.348 79.5139 150.816 76.3201 151.635Z" fill="url(#paint0_linear_10476_850)"/>
<path d="M17.3136 22.306C20.363 18.1118 19.4253 12.2489 15.217 9.21102C11.0133 6.17491 5.1283 7.1142 2.07897 11.3084C-0.972342 15.5051 -0.0349297 21.3658 4.17342 24.4037C8.37956 27.4418 14.2623 26.5027 17.3136 22.306ZM10.5329 35.8626C13.2129 35.3189 15.7317 34.1654 17.7974 32.377L24.6508 26.4319C28.1855 23.3661 30.4988 19.0864 30.9168 14.4344C31.0174 13.3289 31.2404 12.2149 31.5974 11.1158C34.2613 2.86068 43.3099 -1.57522 51.5507 1.48536C58.9087 4.21858 63.015 12.2019 60.9593 19.7589C58.1893 29.9351 49.2748 30.8506 43.8523 30.3528C40.8091 30.073 37.7865 31.0672 35.4809 33.0691L29.6937 38.0863C26.0912 41.2107 26.5019 46.9078 30.5173 49.4803L35.1752 52.4615C40.6567 55.9735 47.3237 56.9932 53.6786 55.5541C56.9155 54.8238 60.3791 54.9202 63.7654 56.0033C73.9947 59.2786 79.5504 70.3099 75.9949 80.4843C72.696 89.9262 61.8351 95.4072 52.2524 92.4731C45.3042 90.3457 40.472 84.6604 39.1036 78.0572C37.7949 71.7209 34.073 66.1373 28.6111 62.6412L19.7691 56.9778C17.4315 55.4791 14.7444 54.5794 11.9643 54.4531C11.1501 54.414 10.3271 54.2706 9.51411 54.0097C5.92552 52.8608 3.50644 49.7677 3.0554 46.2734L2.97795 45.2249C2.96382 44.2233 3.10455 43.2009 3.43123 42.1968C4.51214 38.8448 7.30386 36.5182 10.5329 35.8626Z" fill="url(#paint1_linear_10476_850)"/>
</g>
<defs>
<linearGradient id="paint0_linear_10476_850" x1="79.0175" y1="184.91" x2="26.4722" y2="8.60519" gradientUnits="userSpaceOnUse">
<stop stop-color="white"/>
<stop offset="0.853177" stop-opacity="0"/>
</linearGradient>
<linearGradient id="paint1_linear_10476_850" x1="79.0175" y1="184.91" x2="26.4722" y2="8.60519" gradientUnits="userSpaceOnUse">
<stop stop-color="white"/>
<stop offset="0.853177" stop-opacity="0"/>
</linearGradient>
</defs>
</svg>
