<svg width="115" height="293" viewBox="0 0 115 293" fill="none" xmlns="http://www.w3.org/2000/svg">
<path d="M3.8717 11.494C-1.55879 17.511 -1.06702 26.7784 4.97035 32.1934C11.0112 37.6049 20.3097 37.1142 25.7402 31.0972C31.1741 25.0801 30.6789 15.8092 24.645 10.3977C18.6041 4.98275 9.30219 5.47344 3.8717 11.494ZM14.1886 52.8475C18.4158 52.2246 22.4442 50.6447 25.8204 48.0277L37.0197 39.3345C42.7955 34.8521 46.7681 28.3688 47.8179 21.1442C48.0655 19.425 48.5085 17.7093 49.1572 16.0215C54.0157 3.36453 68.5144 -2.78823 81.1193 2.69287C92.3709 7.58584 98.1049 20.396 94.2509 32.0124C89.0645 47.6623 75.075 48.3269 66.6554 47.088C61.9295 46.3955 57.1303 47.6901 53.36 50.6168L43.9046 57.9528C38.0137 62.5221 38.1776 71.4485 44.2255 75.8055L51.2429 80.8586C59.502 86.8025 69.8154 88.9671 79.8602 87.2619C84.9698 86.3954 90.3724 86.8408 95.5658 88.821C111.25 94.8032 118.986 112.496 112.576 128.073C106.629 142.525 89.211 150.154 74.503 144.756C63.8443 140.844 56.778 131.56 55.2085 121.14C53.6983 111.139 48.362 102.108 40.1343 96.1848L26.8144 86.5937C23.2882 84.0533 19.1726 82.4176 14.8478 81.9826C13.5747 81.8574 12.3052 81.5615 11.0566 81.0848C5.55281 78.9863 2.04409 73.9506 1.63254 68.4591L1.60463 66.8165C1.66393 65.254 1.97085 63.6705 2.56378 62.1289C4.53438 56.9923 9.08944 53.5958 14.1886 52.8475Z" fill="url(#paint0_linear_10476_809)"/>
<path d="M84.6036 263.588C79.1731 269.605 79.6649 278.872 85.7057 284.287C91.7396 289.699 101.042 289.208 106.472 283.191C111.906 277.17 111.414 267.906 105.373 262.491C99.336 257.076 90.0376 257.567 84.6036 263.588ZM97.3759 243.633C93.1208 244.037 89.0156 245.415 85.5104 247.854L73.8786 255.966C67.8796 260.149 63.5792 266.42 62.1631 273.582C61.8248 275.284 61.2947 276.979 60.5588 278.628C55.0585 291.021 40.2633 296.425 27.9584 290.311C16.9718 284.851 11.904 271.766 16.344 260.358C22.3256 244.997 36.3325 245.042 44.6788 246.709C49.3629 247.645 54.2249 246.598 58.1382 243.866L67.9598 237.021C74.0739 232.758 74.3739 223.835 68.5563 219.175L61.8074 213.774C53.8657 207.412 43.6709 204.729 33.5563 205.919C28.4048 206.522 23.0371 205.801 17.9519 203.56C2.59164 196.784 -4.22699 178.723 2.9753 163.494C9.65791 149.361 27.4422 142.631 41.8537 148.77C52.3031 153.221 58.8776 162.854 59.917 173.343C60.9075 183.407 65.773 192.699 73.6868 199.032L86.4975 209.292C89.8841 212.006 93.9125 213.847 98.213 214.501C99.472 214.696 100.728 215.055 101.948 215.594C107.337 217.971 110.588 223.177 110.713 228.683L110.661 230.325C110.518 231.884 110.131 233.45 109.458 234.957C107.225 239.989 102.503 243.146 97.3759 243.633Z" fill="url(#paint1_linear_10476_809)"/>
<defs>
<linearGradient id="paint0_linear_10476_809" x1="15.4764" y1="0.683228" x2="68.1115" y2="283.375" gradientUnits="userSpaceOnUse">
<stop stop-color="#30AB4C"/>
<stop offset="0.853177" stop-opacity="0"/>
</linearGradient>
<linearGradient id="paint1_linear_10476_809" x1="15.4764" y1="0.683228" x2="68.1115" y2="283.375" gradientUnits="userSpaceOnUse">
<stop stop-color="#30AB4C"/>
<stop offset="0.853177" stop-opacity="0"/>
</linearGradient>
</defs>
</svg>
