<svg width="292" height="443" viewBox="0 0 292 443" fill="none" xmlns="http://www.w3.org/2000/svg">
<path d="M2.0202 52.878C-2.70344 64.3578 2.79047 77.4666 14.2916 82.1574C25.7959 86.8413 38.9501 81.333 43.6737 69.8532C48.4024 58.3716 42.9017 45.2595 31.4074 40.572C19.9012 35.883 6.74204 41.3932 2.0202 52.878ZM38.2473 107.179C44.0209 104.099 49.0137 99.7406 52.5307 94.224L64.1907 75.9069C70.2046 66.4618 72.5853 55.0623 70.369 44.103C69.8384 41.4963 69.5913 38.7938 69.6553 36.0252C70.1259 15.2665 87.8551 -1.091 108.86 0.304271C127.61 1.55021 142.492 17.0607 142.932 35.8004C143.534 61.0438 123.706 69.2251 110.926 71.7858C103.754 73.2272 97.5024 77.5718 93.5771 83.7385L83.7309 99.1981C77.5959 108.828 82.441 121.615 93.411 124.774L106.138 128.437C121.116 132.744 137.105 130.54 150.708 122.895C157.628 119.007 165.648 116.86 174.159 117.034C199.863 117.562 220.153 139.079 218.952 164.849C217.839 188.759 196.662 208.751 172.668 208.562C155.279 208.425 140.297 198.686 132.654 184.472C125.313 170.831 112.956 160.564 98.0338 156.272L73.8759 149.319C67.4798 147.477 60.701 147.243 54.2404 148.849C52.3401 149.326 50.3568 149.555 48.3102 149.512C39.2909 149.328 31.6317 143.878 28.203 136.173L27.3146 133.818C26.5934 131.535 26.2184 129.093 26.2774 126.564C26.4668 118.14 31.2811 110.891 38.2473 107.179Z" fill="url(#paint0_linear_10476_869)"/>
<path d="M248.585 374.691C243.862 386.171 249.356 399.28 260.862 403.969C272.356 408.657 285.515 403.146 290.239 391.667C294.966 380.18 289.474 367.076 277.968 362.387C266.466 357.696 253.312 363.205 248.585 374.691ZM256.699 339.324C250.772 342.103 245.564 346.21 241.77 351.537L229.186 369.239C222.696 378.368 219.733 389.631 221.389 400.689C221.78 403.317 221.89 406.035 221.681 408.793C220.148 429.502 201.605 444.934 180.706 442.47C162.045 440.27 147.982 424.019 148.494 405.278C149.188 380.04 169.408 372.873 182.303 370.968C189.541 369.899 196.01 365.878 200.242 359.919L210.87 344.978C217.485 335.674 213.311 322.653 202.516 318.938L189.996 314.635C175.261 309.562 159.175 310.957 145.206 317.895C138.088 321.423 129.977 323.156 121.487 322.55C95.8409 320.71 76.6838 298.188 79.2061 272.511C81.5451 248.683 103.713 229.796 127.663 231.207C145.028 232.23 159.482 242.725 166.396 257.312C173.02 271.313 184.833 282.198 199.514 287.245L223.283 295.424C229.568 297.589 236.327 298.164 242.865 296.887C244.781 296.518 246.777 296.386 248.816 296.534C257.813 297.179 265.188 303.007 268.211 310.881L268.984 313.276C269.583 315.598 269.833 318.056 269.641 320.577C269.02 328.985 263.84 335.975 256.699 339.324Z" fill="url(#paint1_linear_10476_869)"/>
<defs>
<linearGradient id="paint0_linear_10476_869" x1="13.1715" y1="31.2983" x2="235.022" y2="411.738" gradientUnits="userSpaceOnUse">
<stop stop-color="#30AB4C"/>
<stop offset="0.853177" stop-opacity="0"/>
</linearGradient>
<linearGradient id="paint1_linear_10476_869" x1="13.1715" y1="31.2983" x2="235.022" y2="411.738" gradientUnits="userSpaceOnUse">
<stop stop-color="#30AB4C"/>
<stop offset="0.853177" stop-opacity="0"/>
</linearGradient>
</defs>
</svg>
