<svg width="236" height="451" viewBox="0 0 236 451" fill="none" xmlns="http://www.w3.org/2000/svg">
<path d="M105.925 3.52908C95.209 9.79477 91.6307 23.5505 97.9332 34.2536C104.243 44.9533 118.043 48.5475 128.759 42.2818C139.481 36.0178 143.056 22.2553 136.757 11.5589C130.449 0.8542 116.643 -2.7417 105.925 3.52908ZM101.814 68.6762C108.274 69.7265 114.886 69.2877 121.028 67.0327L141.406 59.5349C151.915 55.6695 160.719 48.0472 165.601 37.9881C166.759 35.5934 168.201 33.2943 169.93 31.1313C182.89 14.908 206.906 12.648 222.765 26.4922C236.921 38.8505 239.352 60.2077 228.341 75.3778C213.516 95.8178 192.787 90.3029 181.071 84.5913C174.493 81.3896 166.888 81.0545 160.028 83.5789L142.825 89.904C132.107 93.843 128.209 106.949 135.017 116.113L142.918 126.742C152.218 139.247 166.269 147.188 181.723 149.355C189.583 150.459 197.263 153.614 203.925 158.912C224.047 174.915 227.138 204.327 210.559 224.093C195.179 242.433 166.217 245.494 147.25 230.797C133.504 220.146 127.494 203.317 130.033 187.38C132.465 172.08 128.862 156.424 119.598 143.964L104.601 123.789C100.631 118.446 95.3817 114.151 89.2703 111.511C87.4701 110.738 85.7541 109.717 84.1524 108.443C77.0914 102.828 74.304 93.8508 76.249 85.6439L76.9698 83.2333C77.7807 80.9799 78.9627 78.8108 80.5429 76.8353C85.8006 70.2509 94.0243 67.4045 101.814 68.6762Z" fill="url(#paint0_linear_10476_868)"/>
<path d="M106.906 408.939C96.1897 415.205 92.6114 428.961 98.9191 439.665C105.218 450.362 119.024 453.958 129.74 447.692C140.463 441.423 144.04 427.672 137.732 416.967C131.43 406.264 117.629 402.67 106.906 408.939ZM134.8 385.732C128.402 384.349 121.771 384.457 115.523 386.393L94.7837 392.842C84.0878 396.167 74.9032 403.328 69.5161 413.126C68.2333 415.453 66.6738 417.681 64.8349 419.748C51.0612 435.288 26.959 436.318 11.8318 421.688C-1.67414 408.625 -3.0057 387.175 8.76369 372.581C24.6161 352.932 45.0413 359.491 56.4517 365.793C62.8552 369.331 70.4379 370.056 77.4166 367.883L94.9267 362.444C105.828 359.055 110.402 346.169 104.07 336.67L96.7225 325.658C88.079 312.69 74.4413 304.047 59.1251 301.096C51.3264 299.587 43.825 296.047 37.441 290.418C18.1605 273.407 16.5801 243.881 34.1531 224.99C50.4593 207.459 79.5393 205.878 97.7303 221.52C110.92 232.862 116.051 249.97 112.706 265.763C109.486 280.913 112.281 296.732 120.897 309.646L134.841 330.561C138.526 336.093 143.553 340.648 149.527 343.596C151.275 344.464 152.941 345.57 154.473 346.923C161.237 352.89 163.569 361.997 161.2 370.092L160.362 372.465C159.43 374.675 158.139 376.781 156.458 378.669C150.867 384.979 142.51 387.398 134.8 385.732Z" fill="url(#paint1_linear_10476_868)"/>
<defs>
<linearGradient id="paint0_linear_10476_868" x1="127.876" y1="-6.8718" x2="73.6594" y2="430.178" gradientUnits="userSpaceOnUse">
<stop stop-color="#30AB4C"/>
<stop offset="0.853177" stop-opacity="0"/>
</linearGradient>
<linearGradient id="paint1_linear_10476_868" x1="127.876" y1="-6.8718" x2="73.6594" y2="430.178" gradientUnits="userSpaceOnUse">
<stop stop-color="#30AB4C"/>
<stop offset="0.853177" stop-opacity="0"/>
</linearGradient>
</defs>
</svg>
