<svg width="197" height="376" viewBox="0 0 197 376" fill="none" xmlns="http://www.w3.org/2000/svg">
<path d="M88.4534 2.6306C79.5091 7.86024 76.5225 19.3414 81.7829 28.2748C87.0489 37.2052 98.5675 40.2051 107.512 34.9755C116.46 29.7472 119.444 18.2604 114.187 9.33268C108.922 0.398019 97.3991 -2.60329 88.4534 2.6306ZM85.0223 57.0054C90.4136 57.8821 95.9329 57.5159 101.059 55.6338L118.067 49.3757C126.838 46.1495 134.187 39.7876 138.261 31.3917C139.228 29.393 140.432 27.4741 141.875 25.6687C152.692 12.128 172.737 10.2417 185.973 21.7967C197.788 32.1116 199.818 49.9373 190.628 62.599C178.253 79.6592 160.952 75.0561 151.174 70.289C145.684 67.6167 139.336 67.337 133.61 69.444L119.251 74.7232C110.306 78.0109 107.052 88.9497 112.735 96.5982L119.329 105.47C127.092 115.907 138.82 122.535 151.717 124.344C158.278 125.265 164.688 127.898 170.249 132.32C187.044 145.677 189.623 170.226 175.786 186.724C162.948 202.031 138.776 204.586 122.945 192.319C111.472 183.429 106.456 169.383 108.575 156.081C110.605 143.311 107.597 130.244 99.865 119.844L87.3478 103.005C84.0346 98.5457 79.6533 94.9605 74.5524 92.7571C73.0499 92.1119 71.6176 91.2603 70.2808 90.1963C64.3873 85.5101 62.0609 78.0173 63.6842 71.1675L64.2858 69.1555C64.9626 67.2747 65.9492 65.4643 67.2681 63.8154C71.6565 58.3198 78.5203 55.944 85.0223 57.0054Z" fill="url(#paint0_linear_10476_867)"/>
<path d="M89.272 341.005C80.3277 346.235 77.3411 357.716 82.6057 366.651C87.8633 375.578 99.3861 378.58 108.33 373.35C117.28 368.117 120.266 356.64 115.001 347.706C109.741 338.772 98.222 335.772 89.272 341.005ZM112.554 321.635C107.214 320.481 101.679 320.571 96.4645 322.187L79.1542 327.57C70.2268 330.345 62.561 336.321 58.0646 344.499C56.994 346.442 55.6923 348.301 54.1574 350.026C42.6613 362.997 22.5445 363.857 9.91861 351.646C-1.35412 340.743 -2.46551 322.84 7.35778 310.659C20.5889 294.259 37.6368 299.733 47.1605 304.994C52.5051 307.947 58.834 308.551 64.6588 306.737L79.2735 302.198C88.3721 299.369 92.19 288.614 86.9051 280.686L80.7724 271.494C73.5581 260.671 62.1754 253.457 49.3918 250.994C42.8826 249.734 36.6216 246.78 31.2932 242.082C15.2008 227.883 13.8818 203.24 28.549 187.472C42.1589 172.84 66.4305 171.521 81.6135 184.576C92.6223 194.042 96.9052 208.322 94.1131 221.504C91.4258 234.149 93.7584 247.352 100.949 258.13L112.588 275.587C115.664 280.204 119.859 284.006 124.846 286.467C126.304 287.191 127.695 288.114 128.974 289.243C134.619 294.224 136.565 301.825 134.588 308.581L133.889 310.562C133.111 312.406 132.034 314.164 130.631 315.74C125.964 321.007 118.989 323.025 112.554 321.635Z" fill="url(#paint1_linear_10476_867)"/>
<defs>
<linearGradient id="paint0_linear_10476_867" x1="106.775" y1="-6.05047" x2="61.5228" y2="358.732" gradientUnits="userSpaceOnUse">
<stop stop-color="#30AB4C"/>
<stop offset="0.853177" stop-opacity="0"/>
</linearGradient>
<linearGradient id="paint1_linear_10476_867" x1="106.775" y1="-6.05047" x2="61.5228" y2="358.732" gradientUnits="userSpaceOnUse">
<stop stop-color="#30AB4C"/>
<stop offset="0.853177" stop-opacity="0"/>
</linearGradient>
</defs>
</svg>
