<svg width="243" height="465" viewBox="0 0 243 465" fill="none" xmlns="http://www.w3.org/2000/svg">
<path d="M109.204 4.0516C98.1751 10.4999 94.4926 24.6565 100.979 35.6715C107.472 46.6829 121.675 50.3819 132.703 43.9336C143.737 37.487 147.416 23.3235 140.933 12.3154C134.442 1.29877 120.234 -2.40191 109.204 4.0516ZM104.973 71.0971C111.621 72.178 118.426 71.7264 124.746 69.4058L145.718 61.6894C156.533 57.7114 165.594 49.867 170.618 39.5147C171.81 37.0503 173.294 34.6842 175.074 32.4582C188.411 15.7621 213.127 13.4363 229.448 27.6839C244.016 40.4023 246.519 62.3819 235.187 77.994C219.929 99.0297 198.596 93.354 186.539 87.476C179.77 84.181 171.943 83.8361 164.883 86.4341L147.178 92.9435C136.149 96.9973 132.136 110.485 139.143 119.916L147.274 130.855C156.846 143.724 171.306 151.896 187.21 154.127C195.299 155.263 203.203 158.51 210.06 163.962C230.768 180.432 233.948 210.701 216.886 231.043C201.058 249.917 171.252 253.067 151.732 237.942C137.586 226.98 131.401 209.661 134.014 193.26C136.517 177.514 132.809 161.402 123.274 148.579L107.84 127.816C103.755 122.317 98.3529 117.897 92.0634 115.18C90.2108 114.384 88.4447 113.334 86.7964 112.022C79.5296 106.244 76.661 97.0053 78.6627 88.5592L79.4044 86.0784C80.239 83.7593 81.4555 81.527 83.0817 79.4939C88.4926 72.7177 96.9559 69.7884 104.973 71.0971Z" fill="url(#paint0_linear_10476_870)"/>
<path d="M110.213 421.275C99.1845 427.724 95.5019 441.88 101.993 452.897C108.476 463.905 122.684 467.606 133.713 461.157C144.748 454.706 148.429 440.554 141.938 429.538C135.451 418.523 121.249 414.824 110.213 421.275ZM138.92 397.392C132.336 395.968 125.511 396.08 119.082 398.072L97.7375 404.709C86.7299 408.131 77.2777 415.5 71.7335 425.584C70.4134 427.979 68.8085 430.272 66.9159 432.399C52.7409 448.392 27.9364 449.452 12.3684 434.396C-1.53115 420.952 -2.90152 398.877 9.21084 383.858C25.5252 363.636 46.5455 370.386 58.2885 376.872C64.8786 380.513 72.6822 381.259 79.8643 379.022L97.8846 373.425C109.103 369.938 113.811 356.676 107.295 346.901L99.7328 335.567C90.8374 322.222 76.8023 313.327 61.0398 310.289C53.0138 308.736 45.2938 305.093 38.7238 299.3C18.8815 281.793 17.2551 251.407 35.3401 231.966C52.1215 213.924 82.0489 212.297 100.77 228.395C114.344 240.067 119.625 257.674 116.182 273.927C112.869 289.519 115.745 305.799 124.612 319.089L138.962 340.613C142.755 346.306 147.928 350.994 154.076 354.028C155.875 354.922 157.59 356.059 159.166 357.452C166.127 363.593 168.527 372.965 166.089 381.296L165.227 383.738C164.268 386.012 162.939 388.18 161.209 390.123C155.455 396.617 146.855 399.106 138.92 397.392Z" fill="url(#paint1_linear_10476_870)"/>
<defs>
<linearGradient id="paint0_linear_10476_870" x1="131.795" y1="-6.65236" x2="75.9976" y2="443.133" gradientUnits="userSpaceOnUse">
<stop stop-color="#30AB4C"/>
<stop offset="0.853177" stop-opacity="0"/>
</linearGradient>
<linearGradient id="paint1_linear_10476_870" x1="131.795" y1="-6.65236" x2="75.9976" y2="443.133" gradientUnits="userSpaceOnUse">
<stop stop-color="#30AB4C"/>
<stop offset="0.853177" stop-opacity="0"/>
</linearGradient>
</defs>
</svg>
