<svg width="153" height="335" viewBox="0 0 153 335" fill="none" xmlns="http://www.w3.org/2000/svg">
<path d="M53.6944 3.08825C46.144 8.4235 44.3696 18.8594 49.7314 26.3976C55.0979 33.9328 65.5681 35.7162 73.1184 30.3809C80.6727 25.0465 82.4441 14.6059 77.0853 7.07246C71.7196 -0.466616 61.2456 -2.25088 53.6944 3.08825ZM54.8151 51.6907C59.6751 52.0565 64.5537 51.3075 68.9663 49.2411L83.6066 42.373C91.1567 38.8321 97.2016 32.6127 100.18 24.8362C100.886 22.9852 101.809 21.187 102.953 19.4713C111.531 6.60385 129.206 3.38933 141.86 12.6464C153.154 20.91 156.326 36.6014 149.127 48.5626C139.435 64.6783 123.701 61.9133 114.643 58.4254C109.557 56.4708 103.892 56.7092 98.9635 59.0215L86.6038 64.8161C78.9038 68.4251 76.85 78.3993 82.4884 84.7628L89.0315 92.1438C96.7331 100.827 107.667 105.82 119.272 106.439C125.175 106.754 131.076 108.603 136.359 112.108C152.314 122.694 156.49 144.32 145.454 160.048C135.216 174.641 113.922 178.766 98.9076 169.075C88.0267 162.052 82.4894 149.95 83.3531 137.962C84.1782 126.454 80.5023 115.068 72.8305 106.416L60.411 92.4061C57.1235 88.6957 52.9535 85.8446 48.2498 84.277C46.8645 83.8187 45.5259 83.1715 44.2559 82.3281C38.6571 78.6142 36.0141 72.1316 36.9319 65.9175L37.3123 64.0827C37.7697 62.3588 38.508 60.6736 39.554 59.1066C43.0337 53.8844 48.9534 51.2458 54.8151 51.6907Z" fill="url(#paint0_linear_10476_808)"/>
<path d="M80.3781 303.84C72.8277 309.176 71.0533 319.611 76.419 327.15C81.7777 334.684 92.2518 336.468 99.8021 331.133C107.357 325.795 109.131 315.363 103.765 307.824C98.4034 300.285 87.9332 298.502 80.3781 303.84ZM99.59 284.835C94.7538 284.218 89.8404 284.723 85.3287 286.559L70.3527 292.673C62.6292 295.825 56.2727 301.726 52.9027 309.341C52.0999 311.15 51.0854 312.903 49.8532 314.554C40.6281 326.966 22.8102 329.274 10.6492 319.387C-0.208674 310.559 -2.57 294.728 5.22856 283.146C15.733 267.551 31.3085 271.111 40.1785 275.056C45.1564 277.272 50.8292 277.324 55.8683 275.264L68.5126 270.107C76.3842 266.895 78.9534 257.041 73.6469 250.398L67.4899 242.697C60.2461 233.629 49.5736 228.089 38.02 226.88C32.1367 226.259 26.344 224.113 21.2467 220.345C5.85143 208.957 2.78845 187.15 14.6182 172.008C25.595 157.955 47.0712 154.921 61.5703 165.363C72.0833 172.933 76.9861 185.3 75.5151 197.232C74.096 208.68 77.1825 220.238 84.4022 229.269L96.0877 243.895C99.1763 247.764 103.198 250.822 107.819 252.627C109.172 253.159 110.479 253.873 111.702 254.779C117.103 258.774 119.416 265.381 118.177 271.539L117.707 273.354C117.158 275.053 116.334 276.699 115.208 278.207C111.463 283.247 105.417 285.577 99.59 284.835Z" fill="url(#paint1_linear_10476_808)"/>
<defs>
<linearGradient id="paint0_linear_10476_808" x1="69.3163" y1="-6.03463" x2="57.0688" y2="321.728" gradientUnits="userSpaceOnUse">
<stop stop-color="#30AB4C"/>
<stop offset="0.853177" stop-opacity="0"/>
</linearGradient>
<linearGradient id="paint1_linear_10476_808" x1="69.3163" y1="-6.03463" x2="57.0688" y2="321.728" gradientUnits="userSpaceOnUse">
<stop stop-color="#30AB4C"/>
<stop offset="0.853177" stop-opacity="0"/>
</linearGradient>
</defs>
</svg>
